# xmcd
# Track frame offsets:
# 150
# 16769
# 34616
# 43590
# 57644
# 71280
# 82209
# 96983
# 110226
# 122247
#
# Disc length: 1809 seconds
# Revision: 0
# Processed by: cddbd v1.4PL0 Copyright (c) Steve Scherf et al.
# Submitted via: VisiTrax 2.9.5.180 - For more info visit www.synapsa.com
#
DISCID=8a070f0a
DTITLE=John Wayne - Ropin' Dreams
DYEAR=1900
DGENRE=
TTITLE0=Angel things
TTITLE1=Rockin' horse
TTITLE2=Put a little love on that hurt
TTITLE3=Texas man
TTITLE4=My girl
TTITLE5=Playboy
TTITLE6=The queen of my soul
TTITLE7=I couldn't care more
TTITLE8=Love on our side
TTITLE9=Don't threaten me with a good time
EXTD=
EXTT0=
EXTT1=
EXTT2=
EXTT3=
EXTT4=
EXTT5=
EXTT6=
EXTT7=
EXTT8=
EXTT9=
PLAYORDER=
